<svg width="100%" height="100%" viewBox="0 0 20 20" fill="none" xmlns="http://www.w3.org/2000/svg">
<path d="M16.25 2.5H3.75C3.08696 2.5 2.45107 2.76339 1.98223 3.23223C1.51339 3.70107 1.25 4.33696 1.25 5V15C1.25 15.663 1.51339 16.2989 1.98223 16.7678C2.45107 17.2366 3.08696 17.5 3.75 17.5H16.25C16.913 17.5 17.5489 17.2366 18.0178 16.7678C18.4866 16.2989 18.75 15.663 18.75 15V5C18.75 4.33696 18.4866 3.70107 18.0178 3.23223C17.5489 2.76339 16.913 2.5 16.25 2.5ZM17.5 15C17.5 15.3315 17.3683 15.6495 17.1339 15.8839C16.8995 16.1183 16.5815 16.25 16.25 16.25H3.75C3.41848 16.25 3.10054 16.1183 2.86612 15.8839C2.6317 15.6495 2.5 15.3315 2.5 15V5C2.5 4.66848 2.6317 4.35054 2.86612 4.11612C3.10054 3.8817 3.41848 3.75 3.75 3.75H16.25C16.5815 3.75 16.8995 3.8817 17.1339 4.11612C17.3683 4.35054 17.5 4.66848 17.5 5V15Z" fill="currentColor"/>
<path d="M8.13 10.8625L6.25 8.9825C6.20121 8.93371 6.1425 8.89519 6.07718 8.86942C6.01186 8.84365 5.94122 8.83116 5.8701 8.83263C5.79898 8.8341 5.72891 8.84949 5.66468 8.87787C5.60045 8.90625 5.54339 8.94699 5.49669 8.99756C5.4034 9.09459 5.35149 9.22452 5.35461 9.35816C5.35772 9.4918 5.41557 9.61891 5.5125 9.7125L7.9375 12.1375C7.98621 12.1862 8.04489 12.2247 8.11018 12.2505C8.17547 12.2763 8.24609 12.2888 8.31719 12.2873C8.38829 12.2858 8.45834 12.2704 8.52257 12.242C8.5868 12.2136 8.64386 12.1729 8.69063 12.1225L14.5031 6.3625C14.5978 6.26891 14.6506 6.14182 14.6506 6.00938C14.6506 5.87693 14.5978 5.74984 14.5031 5.65625C14.4563 5.60569 14.3993 5.56555 14.335 5.53822C14.2708 5.51089 14.2007 5.49692 14.1296 5.49708C14.0585 5.49724 13.9884 5.51151 13.9243 5.53914C13.8601 5.56676 13.8032 5.60716 13.7567 5.65792L8.13 10.8625Z" fill="currentColor"/>
</svg>